 <svg version="1.0" xmlns="http://www.w3.org/2000/svg" width="700.000000pt" height="700.000000pt" viewBox="0 0 700.000000 700.000000" preserveAspectRatio="xMidYMid meet">
<metadata>
Created by potrace 1.12, written by Peter Selinger 2001-2015
</metadata>
<g transform="translate(0.000000,700.000000) scale(0.100000,-0.100000)" fill="#000000" stroke="none">
<path d="M3700 5086 c0 -2 124 -219 276 -482 152 -264 315 -545 361 -626 l85
-148 209 0 c115 0 209 2 209 4 0 2 -17 33 -39 67 -21 35 -132 228 -248 429
-115 201 -260 454 -323 563 l-114 197 -208 0 c-114 0 -208 -2 -208 -4z"></path>
<path d="M3607 5028 c-8 -13 -83 -142 -167 -288 -84 -146 -178 -308 -208 -360
-31 -52 -56 -97 -56 -100 -1 -3 106 -7 237 -10 l239 -5 134 -235 c74 -129 134
-239 134 -244 0 -5 -57 -108 -126 -229 -97 -169 -125 -224 -117 -236 15 -25
124 -217 159 -279 17 -31 35 -57 40 -59 5 -1 114 180 242 402 l233 405 -74
128 c-41 70 -136 235 -212 367 -157 274 -258 449 -356 618 -38 65 -69 122 -69
127 0 20 -20 19 -33 -2z"></path>
<path d="M2670 4183 c0 -5 44 -85 99 -178 l98 -170 468 -3 c373 -2 466 0 462
10 -3 7 -48 87 -100 178 l-95 165 -466 3 c-256 1 -466 -1 -466 -5z"></path>
<path d="M2529 4053 c-51 -89 -301 -523 -519 -898 -48 -82 -102 -178 -120
-211 l-34 -61 69 -119 c38 -66 83 -145 100 -176 16 -32 35 -58 41 -58 6 0 16
12 23 27 7 14 98 175 203 357 105 182 234 405 286 496 52 91 123 213 158 272
l63 108 -101 172 c-55 95 -103 176 -107 181 -4 4 -32 -37 -62 -90z"></path>
<path d="M2856 3727 c-8 -12 -161 -278 -341 -592 -180 -313 -338 -586 -350
-606 -13 -20 -21 -40 -18 -43 10 -10 873 -7 873 3 0 6 -180 323 -222 391 -8
12 24 74 130 255 l140 240 265 3 265 2 73 128 c39 70 87 150 105 179 18 28 30
54 26 57 -3 4 -214 6 -469 6 l-464 -2 -13 -21z"></path>
<path d="M4204 3373 c-120 -208 -227 -393 -237 -411 l-19 -32 213 2 214 3 76
130 c150 257 389 675 389 680 0 3 -94 5 -209 5 l-208 0 -219 -377z"></path>
<path d="M3180 3294 c0 -4 105 -189 232 -410 l233 -404 722 0 c398 0 723 4
723 8 0 5 -39 76 -86 158 -48 82 -145 252 -217 377 -71 125 -132 225 -136 222
-3 -4 -55 -93 -116 -198 l-110 -192 -286 -3 -286 -2 -108 187 c-59 104 -118
205 -131 226 l-24 37 -205 0 c-113 0 -205 -3 -205 -6z"></path>
<path d="M3070 3219 c-24 -47 -117 -209 -157 -271 -12 -21 -23 -43 -23 -49 0
-7 98 -181 217 -388 119 -207 223 -388 231 -403 7 -16 17 -28 20 -28 4 0 19
21 33 48 15 26 62 107 104 181 l78 133 -19 32 c-10 17 -114 198 -232 401 -117
204 -217 374 -222 379 -5 5 -18 -11 -30 -35z"></path>
<path d="M3627 2373 c-8 -16 -53 -95 -100 -177 -48 -82 -87 -152 -87 -155 0
-3 327 -5 726 -4 l726 3 22 38 c11 21 56 99 99 174 42 74 77 138 77 142 0 3
-326 6 -724 6 l-725 0 -14 -27z"></path>
</g>
</svg>