<svg version="1.0" xmlns="http://www.w3.org/2000/svg" width="933.333" height="933.333" viewBox="0 0 700 700"><path d="M370 191.4c0 .2 12.4 21.9 27.6 48.2 15.2 26.4 31.5 54.5 36.1 62.6l8.5 14.8h20.9c11.5 0 20.9-.2 20.9-.4s-1.7-3.3-3.9-6.7c-2.1-3.5-13.2-22.8-24.8-42.9-11.5-20.1-26-45.4-32.3-56.3L411.6 191h-20.8c-11.4 0-20.8.2-20.8.4zm-9.3 5.8c-.8 1.3-8.3 14.2-16.7 28.8-8.4 14.6-17.8 30.8-20.8 36-3.1 5.2-5.6 9.7-5.6 10-.1.3 10.6.7 23.7 1l23.9.5 13.4 23.5c7.4 12.9 13.4 23.9 13.4 24.4s-5.7 10.8-12.6 22.9c-9.7 16.9-12.5 22.4-11.7 23.6 1.5 2.5 12.4 21.7 15.9 27.9 1.7 3.1 3.5 5.7 4 5.9.5.1 11.4-18 24.2-40.2l23.3-40.5-7.4-12.8c-4.1-7-13.6-23.5-21.2-36.7-15.7-27.4-25.8-44.9-35.6-61.8-3.8-6.5-6.9-12.2-6.9-12.7 0-2-2-1.9-3.3.2z"/><path d="M267 281.7c0 .5 4.4 8.5 9.9 17.8l9.8 17 46.8.3c37.3.2 46.6 0 46.2-1-.3-.7-4.8-8.7-10-17.8l-9.5-16.5-46.6-.3c-25.6-.1-46.6.1-46.6.5zm-14.1 13c-5.1 8.9-30.1 52.3-51.9 89.8-4.8 8.2-10.2 17.8-12 21.1l-3.4 6.1 6.9 11.9c3.8 6.6 8.3 14.5 10 17.6 1.6 3.2 3.5 5.8 4.1 5.8.6 0 1.6-1.2 2.3-2.7.7-1.4 9.8-17.5 20.3-35.7 10.5-18.2 23.4-40.5 28.6-49.6 5.2-9.1 12.3-21.3 15.8-27.2l6.3-10.8-10.1-17.2c-5.5-9.5-10.3-17.6-10.7-18.1-.4-.4-3.2 3.7-6.2 9zm32.7 32.6c-.8 1.2-16.1 27.8-34.1 59.2-18 31.3-33.8 58.6-35 60.6-1.3 2-2.1 4-1.8 4.3 1 1 87.3.7 87.3-.3 0-.6-18-32.3-22.2-39.1-.8-1.2 2.4-7.4 13-25.5l14-24 26.5-.3 26.5-.2 7.3-12.8c3.9-7 8.7-15 10.5-17.9 1.8-2.8 3-5.4 2.6-5.7-.3-.4-21.4-.6-46.9-.6l-46.4.2-1.3 2.1zm134.8 35.4c-12 20.8-22.7 39.3-23.7 41.1l-1.9 3.2 21.3-.2 21.4-.3 7.6-13c15-25.7 38.9-67.5 38.9-68 0-.3-9.4-.5-20.9-.5h-20.8l-21.9 37.7z"/><path d="M318 370.6c0 .4 10.5 18.9 23.2 41l23.3 40.4h72.2c39.8 0 72.3-.4 72.3-.8 0-.5-3.9-7.6-8.6-15.8-4.8-8.2-14.5-25.2-21.7-37.7-7.1-12.5-13.2-22.5-13.6-22.2-.3.4-5.5 9.3-11.6 19.8l-11 19.2-28.6.3-28.6.2-10.8-18.7c-5.9-10.4-11.8-20.5-13.1-22.6L359 370h-20.5c-11.3 0-20.5.3-20.5.6zm-11 7.5c-2.4 4.7-11.7 20.9-15.7 27.1-1.2 2.1-2.3 4.3-2.3 4.9 0 .7 9.8 18.1 21.7 38.8 11.9 20.7 22.3 38.8 23.1 40.3.7 1.6 1.7 2.8 2 2.8.4 0 1.9-2.1 3.3-4.8 1.5-2.6 6.2-10.7 10.4-18.1l7.8-13.3-1.9-3.2c-1-1.7-11.4-19.8-23.2-40.1-11.7-20.4-21.7-37.4-22.2-37.9s-1.8 1.1-3 3.5zm55.7 84.6c-.8 1.6-5.3 9.5-10 17.7-4.8 8.2-8.7 15.2-8.7 15.5 0 .3 32.7.5 72.6.4l72.6-.3 2.2-3.8c1.1-2.1 5.6-9.9 9.9-17.4 4.2-7.4 7.7-13.8 7.7-14.2 0-.3-32.6-.6-72.4-.6h-72.5l-1.4 2.7z"/></svg>